<?xml version="1.0" encoding="utf-8"?>
<!-- Generator: Adobe Illustrator 16.0.0, SVG Export Plug-In . SVG Version: 6.00 Build 0)  -->
<!DOCTYPE svg PUBLIC "-//W3C//DTD SVG 1.1//EN" "http://www.w3.org/Graphics/SVG/1.1/DTD/svg11.dtd">
<svg version="1.1" xmlns="http://www.w3.org/2000/svg" xmlns:xlink="http://www.w3.org/1999/xlink" x="0px" y="0px" width="1024px"
	 height="768px" viewBox="0 0 1024 768" enable-background="new 0 0 1024 768" xml:space="preserve">
<g id="Layer_1">
</g>
<g id="Windows">
	<g>
		<path fill="none" stroke="#000000" stroke-width="2.52" stroke-linejoin="round" stroke-miterlimit="10" d="M228.777,604.303
			v-16.125c0-5.196,4.211-9.409,9.409-9.409c5.197,0,9.411,4.213,9.411,9.409v16.125H228.777z"/>
		
			<line fill="none" stroke="#000000" stroke-width="2.52" stroke-linejoin="round" stroke-miterlimit="10" x1="228.777" y1="590.84" x2="247.597" y2="590.84"/>
		
			<line fill="none" stroke="#000000" stroke-width="2.52" stroke-linejoin="round" stroke-miterlimit="10" x1="234.552" y1="579.934" x2="234.552" y2="604.303"/>
		
			<line fill="none" stroke="#000000" stroke-width="2.52" stroke-linejoin="round" stroke-miterlimit="10" x1="241.821" y1="579.934" x2="241.821" y2="604.303"/>
	</g>
	<g>
		<path fill="none" stroke="#000000" stroke-width="2.52" stroke-linejoin="round" stroke-miterlimit="10" d="M259.447,604.303
			v-16.125c0-5.196,4.211-9.409,9.409-9.409c5.197,0,9.411,4.213,9.411,9.409v16.125H259.447z"/>
		
			<line fill="none" stroke="#000000" stroke-width="2.52" stroke-linejoin="round" stroke-miterlimit="10" x1="259.447" y1="590.84" x2="278.267" y2="590.84"/>
		
			<line fill="none" stroke="#000000" stroke-width="2.52" stroke-linejoin="round" stroke-miterlimit="10" x1="265.222" y1="579.934" x2="265.222" y2="604.303"/>
		
			<line fill="none" stroke="#000000" stroke-width="2.52" stroke-linejoin="round" stroke-miterlimit="10" x1="272.491" y1="579.934" x2="272.491" y2="604.303"/>
	</g>
	<g>
		<path fill="none" stroke="#000000" stroke-width="2.52" stroke-linejoin="round" stroke-miterlimit="10" d="M289.8,604.303
			v-16.125c0-5.196,4.211-9.409,9.409-9.409c5.197,0,9.411,4.213,9.411,9.409v16.125H289.8z"/>
		
			<line fill="none" stroke="#000000" stroke-width="2.52" stroke-linejoin="round" stroke-miterlimit="10" x1="289.8" y1="590.84" x2="308.62" y2="590.84"/>
		
			<line fill="none" stroke="#000000" stroke-width="2.52" stroke-linejoin="round" stroke-miterlimit="10" x1="295.575" y1="579.934" x2="295.575" y2="604.303"/>
		
			<line fill="none" stroke="#000000" stroke-width="2.52" stroke-linejoin="round" stroke-miterlimit="10" x1="302.844" y1="579.934" x2="302.844" y2="604.303"/>
	</g>
	<g>
		
			<rect x="228.777" y="618.283" fill="none" stroke="#000000" stroke-width="2.52" stroke-linejoin="round" stroke-miterlimit="10" width="18.82" height="25.533"/>
		
			<line fill="none" stroke="#000000" stroke-width="2.52" stroke-linejoin="round" stroke-miterlimit="10" x1="234.552" y1="618.283" x2="234.552" y2="643.816"/>
		
			<line fill="none" stroke="#000000" stroke-width="2.52" stroke-linejoin="round" stroke-miterlimit="10" x1="241.821" y1="618.283" x2="241.821" y2="643.816"/>
		
			<line fill="none" stroke="#000000" stroke-width="2.52" stroke-linejoin="round" stroke-miterlimit="10" x1="228.777" y1="627.882" x2="247.597" y2="627.882"/>
	</g>
	<g>
		
			<rect x="259.447" y="618.283" fill="none" stroke="#000000" stroke-width="2.52" stroke-linejoin="round" stroke-miterlimit="10" width="18.82" height="25.533"/>
		
			<line fill="none" stroke="#000000" stroke-width="2.52" stroke-linejoin="round" stroke-miterlimit="10" x1="265.222" y1="618.283" x2="265.222" y2="643.816"/>
		
			<line fill="none" stroke="#000000" stroke-width="2.52" stroke-linejoin="round" stroke-miterlimit="10" x1="272.491" y1="618.283" x2="272.491" y2="643.816"/>
		
			<line fill="none" stroke="#000000" stroke-width="2.52" stroke-linejoin="round" stroke-miterlimit="10" x1="259.447" y1="627.882" x2="278.267" y2="627.882"/>
	</g>
	<g>
		
			<rect x="289.8" y="618.283" fill="none" stroke="#000000" stroke-width="2.52" stroke-linejoin="round" stroke-miterlimit="10" width="18.82" height="25.533"/>
		
			<line fill="none" stroke="#000000" stroke-width="2.52" stroke-linejoin="round" stroke-miterlimit="10" x1="295.575" y1="618.283" x2="295.575" y2="643.816"/>
		
			<line fill="none" stroke="#000000" stroke-width="2.52" stroke-linejoin="round" stroke-miterlimit="10" x1="302.844" y1="618.283" x2="302.844" y2="643.816"/>
		
			<line fill="none" stroke="#000000" stroke-width="2.52" stroke-linejoin="round" stroke-miterlimit="10" x1="289.8" y1="627.882" x2="308.62" y2="627.882"/>
	</g>
	<g>
		
			<rect x="259.447" y="662.365" fill="none" stroke="#000000" stroke-width="2.52" stroke-linejoin="round" stroke-miterlimit="10" width="18.82" height="25.533"/>
		
			<line fill="none" stroke="#000000" stroke-width="2.52" stroke-linejoin="round" stroke-miterlimit="10" x1="265.222" y1="662.365" x2="265.222" y2="687.898"/>
		
			<line fill="none" stroke="#000000" stroke-width="2.52" stroke-linejoin="round" stroke-miterlimit="10" x1="272.491" y1="662.365" x2="272.491" y2="687.898"/>
		
			<line fill="none" stroke="#000000" stroke-width="2.52" stroke-linejoin="round" stroke-miterlimit="10" x1="259.447" y1="671.965" x2="278.267" y2="671.965"/>
	</g>
	<g>
		
			<rect x="293.972" y="662.365" fill="none" stroke="#000000" stroke-width="2.52" stroke-linejoin="round" stroke-miterlimit="10" width="11.396" height="25.533"/>
		
			<line fill="none" stroke="#000000" stroke-width="2.52" stroke-linejoin="round" stroke-miterlimit="10" x1="299.669" y1="662.365" x2="299.669" y2="687.898"/>
		
			<line fill="none" stroke="#000000" stroke-width="2.52" stroke-linejoin="round" stroke-miterlimit="10" x1="293.933" y1="671.965" x2="305.329" y2="671.965"/>
	</g>
	<g>
		
			<rect x="232.508" y="662.365" fill="none" stroke="#000000" stroke-width="2.52" stroke-linejoin="round" stroke-miterlimit="10" width="11.396" height="25.533"/>
		
			<line fill="none" stroke="#000000" stroke-width="2.52" stroke-linejoin="round" stroke-miterlimit="10" x1="238.206" y1="662.365" x2="238.206" y2="687.898"/>
		
			<line fill="none" stroke="#000000" stroke-width="2.52" stroke-linejoin="round" stroke-miterlimit="10" x1="232.47" y1="671.965" x2="243.865" y2="671.965"/>
	</g>
	<g>
		<path fill="none" stroke="#000000" stroke-width="2.52" stroke-linejoin="round" stroke-miterlimit="10" d="M334.864,606.28
			v-16.124c0-5.197,4.211-9.41,9.409-9.41c5.197,0,9.412,4.213,9.412,9.41v16.124H334.864z"/>
		
			<line fill="none" stroke="#000000" stroke-width="2.52" stroke-linejoin="round" stroke-miterlimit="10" x1="334.864" y1="592.817" x2="353.684" y2="592.817"/>
		
			<line fill="none" stroke="#000000" stroke-width="2.52" stroke-linejoin="round" stroke-miterlimit="10" x1="340.639" y1="581.912" x2="340.639" y2="606.28"/>
		
			<line fill="none" stroke="#000000" stroke-width="2.52" stroke-linejoin="round" stroke-miterlimit="10" x1="347.908" y1="581.912" x2="347.908" y2="606.28"/>
	</g>
	<g>
		
			<rect x="334.864" y="620.956" fill="none" stroke="#000000" stroke-width="2.52" stroke-linejoin="round" stroke-miterlimit="10" width="18.82" height="25.534"/>
		
			<line fill="none" stroke="#000000" stroke-width="2.52" stroke-linejoin="round" stroke-miterlimit="10" x1="340.639" y1="620.956" x2="340.639" y2="646.49"/>
		
			<line fill="none" stroke="#000000" stroke-width="2.52" stroke-linejoin="round" stroke-miterlimit="10" x1="347.908" y1="620.956" x2="347.908" y2="646.49"/>
		
			<line fill="none" stroke="#000000" stroke-width="2.52" stroke-linejoin="round" stroke-miterlimit="10" x1="334.864" y1="630.556" x2="353.684" y2="630.556"/>
	</g>
	<g>
		
			<rect x="334.864" y="667.738" fill="none" stroke="#000000" stroke-width="2.52" stroke-linejoin="round" stroke-miterlimit="10" width="18.82" height="25.534"/>
		
			<line fill="none" stroke="#000000" stroke-width="2.52" stroke-linejoin="round" stroke-miterlimit="10" x1="340.639" y1="667.738" x2="340.639" y2="693.272"/>
		
			<line fill="none" stroke="#000000" stroke-width="2.52" stroke-linejoin="round" stroke-miterlimit="10" x1="347.908" y1="667.738" x2="347.908" y2="693.272"/>
		
			<line fill="none" stroke="#000000" stroke-width="2.52" stroke-linejoin="round" stroke-miterlimit="10" x1="334.864" y1="677.338" x2="353.684" y2="677.338"/>
	</g>
	<g>
		<path fill="none" stroke="#000000" stroke-width="2.52" stroke-linejoin="round" stroke-miterlimit="10" d="M408.312,592.71
			v-26.024c0-5.197,4.212-9.41,9.411-9.41c5.197,0,9.411,4.213,9.411,9.41v26.024H408.312z"/>
		
			<line fill="none" stroke="#000000" stroke-width="2.52" stroke-linejoin="round" stroke-miterlimit="10" x1="408.312" y1="566.686" x2="427.134" y2="566.686"/>
		
			<line fill="none" stroke="#000000" stroke-width="2.52" stroke-linejoin="round" stroke-miterlimit="10" x1="408.312" y1="574.993" x2="427.134" y2="574.993"/>
		
			<line fill="none" stroke="#000000" stroke-width="2.52" stroke-linejoin="round" stroke-miterlimit="10" x1="414.68" y1="557.789" x2="414.68" y2="592.71"/>
		
			<line fill="none" stroke="#000000" stroke-width="2.52" stroke-linejoin="round" stroke-miterlimit="10" x1="420.767" y1="557.789" x2="420.767" y2="592.71"/>
	</g>
	<g>
		
			<rect x="408.313" y="619.295" fill="none" stroke="#000000" stroke-width="2.52" stroke-linejoin="round" stroke-miterlimit="10" width="18.82" height="25.533"/>
		
			<line fill="none" stroke="#000000" stroke-width="2.52" stroke-linejoin="round" stroke-miterlimit="10" x1="414.088" y1="619.295" x2="414.088" y2="644.828"/>
		
			<line fill="none" stroke="#000000" stroke-width="2.52" stroke-linejoin="round" stroke-miterlimit="10" x1="421.357" y1="619.295" x2="421.357" y2="644.828"/>
		
			<line fill="none" stroke="#000000" stroke-width="2.52" stroke-linejoin="round" stroke-miterlimit="10" x1="408.313" y1="628.894" x2="427.133" y2="628.894"/>
	</g>
	<g>
		
			<rect x="385.479" y="567.176" fill="none" stroke="#000000" stroke-width="2.52" stroke-linejoin="round" stroke-miterlimit="10" width="5.698" height="25.534"/>
		
			<line fill="none" stroke="#000000" stroke-width="2.52" stroke-linejoin="round" stroke-miterlimit="10" x1="385.44" y1="576.775" x2="391.139" y2="576.775"/>
	</g>
	<g>
		
			<rect x="444.022" y="567.176" fill="none" stroke="#000000" stroke-width="2.52" stroke-linejoin="round" stroke-miterlimit="10" width="5.698" height="25.534"/>
		
			<line fill="none" stroke="#000000" stroke-width="2.52" stroke-linejoin="round" stroke-miterlimit="10" x1="443.983" y1="576.775" x2="449.682" y2="576.775"/>
	</g>
	<g>
		
			<rect x="444.022" y="619.295" fill="none" stroke="#000000" stroke-width="2.52" stroke-linejoin="round" stroke-miterlimit="10" width="5.698" height="25.533"/>
		
			<line fill="none" stroke="#000000" stroke-width="2.52" stroke-linejoin="round" stroke-miterlimit="10" x1="443.983" y1="628.894" x2="449.682" y2="628.894"/>
	</g>
	<g>
		
			<rect x="385.479" y="619.295" fill="none" stroke="#000000" stroke-width="2.52" stroke-linejoin="round" stroke-miterlimit="10" width="5.698" height="25.533"/>
		
			<line fill="none" stroke="#000000" stroke-width="2.52" stroke-linejoin="round" stroke-miterlimit="10" x1="385.44" y1="628.894" x2="391.139" y2="628.894"/>
	</g>
	<g>
		
			<rect x="408.313" y="667.783" fill="none" stroke="#000000" stroke-width="2.52" stroke-linejoin="round" stroke-miterlimit="10" width="18.82" height="25.534"/>
		
			<line fill="none" stroke="#000000" stroke-width="2.52" stroke-linejoin="round" stroke-miterlimit="10" x1="414.088" y1="667.783" x2="414.088" y2="693.317"/>
		
			<line fill="none" stroke="#000000" stroke-width="2.52" stroke-linejoin="round" stroke-miterlimit="10" x1="421.357" y1="667.783" x2="421.357" y2="693.317"/>
		
			<line fill="none" stroke="#000000" stroke-width="2.52" stroke-linejoin="round" stroke-miterlimit="10" x1="408.313" y1="677.383" x2="427.133" y2="677.383"/>
	</g>
	<g>
		
			<rect x="444.022" y="667.783" fill="none" stroke="#000000" stroke-width="2.52" stroke-linejoin="round" stroke-miterlimit="10" width="5.698" height="25.534"/>
		
			<line fill="none" stroke="#000000" stroke-width="2.52" stroke-linejoin="round" stroke-miterlimit="10" x1="443.983" y1="677.383" x2="449.682" y2="677.383"/>
	</g>
	<g>
		
			<rect x="385.479" y="667.783" fill="none" stroke="#000000" stroke-width="2.52" stroke-linejoin="round" stroke-miterlimit="10" width="5.698" height="25.534"/>
		
			<line fill="none" stroke="#000000" stroke-width="2.52" stroke-linejoin="round" stroke-miterlimit="10" x1="385.44" y1="677.383" x2="391.139" y2="677.383"/>
	</g>
	<g>
		<path fill="none" stroke="#000000" stroke-width="2.52" stroke-linejoin="round" stroke-miterlimit="10" d="M391.862,519.738
			c0-1.964-1.59-3.555-3.553-3.555c-1.964,0-3.554,1.591-3.554,3.555v22.139h7.107V519.738z"/>
		
			<line fill="none" stroke="#000000" stroke-width="2.52" stroke-linejoin="round" stroke-miterlimit="10" x1="384.755" y1="522.282" x2="391.862" y2="522.282"/>
	</g>
	<g>
		<path fill="none" stroke="#000000" stroke-width="2.52" stroke-linejoin="round" stroke-miterlimit="10" d="M450.405,519.738
			c0-1.964-1.59-3.555-3.553-3.555s-3.554,1.591-3.554,3.555v22.139h7.107V519.738z"/>
		
			<line fill="none" stroke="#000000" stroke-width="2.52" stroke-linejoin="round" stroke-miterlimit="10" x1="443.298" y1="522.282" x2="450.405" y2="522.282"/>
	</g>
	<g>
		
			<rect x="409.708" y="516.184" fill="none" stroke="#000000" stroke-width="2.52" stroke-linejoin="round" stroke-miterlimit="10" width="15.102" height="25.693"/>
		
			<line fill="none" stroke="#000000" stroke-width="2.52" stroke-linejoin="round" stroke-miterlimit="10" x1="417.258" y1="516.184" x2="417.258" y2="541.877"/>
		
			<line fill="none" stroke="#000000" stroke-width="2.52" stroke-linejoin="round" stroke-miterlimit="10" x1="410.638" y1="529.031" x2="425.739" y2="529.031"/>
	</g>
	
		<rect x="257.619" y="522.282" fill="none" stroke="#000000" stroke-width="2.52" stroke-linejoin="round" stroke-miterlimit="10" width="22.476" height="35.34"/>
	
		<line fill="none" stroke="#000000" stroke-width="2.52" stroke-linejoin="round" stroke-miterlimit="10" x1="257.619" y1="532.088" x2="280.095" y2="532.088"/>
	
		<line fill="none" stroke="#000000" stroke-width="2.52" stroke-linejoin="round" stroke-miterlimit="10" x1="258.219" y1="545.265" x2="280.695" y2="545.265"/>
	
		<line fill="none" stroke="#000000" stroke-width="2.52" stroke-linejoin="round" stroke-miterlimit="10" x1="265.212" y1="522.282" x2="265.212" y2="557.622"/>
	
		<line fill="none" stroke="#000000" stroke-width="2.52" stroke-linejoin="round" stroke-miterlimit="10" x1="272.481" y1="522.282" x2="272.481" y2="557.622"/>
	
		<rect x="289.18" y="532.088" fill="none" stroke="#000000" stroke-width="2.52" stroke-linejoin="round" stroke-miterlimit="10" width="5.698" height="25.534"/>
	
		<line fill="none" stroke="#000000" stroke-width="2.52" stroke-linejoin="round" stroke-miterlimit="10" x1="289.602" y1="545.265" x2="295.299" y2="545.265"/>
	
		<rect x="242.538" y="532.088" fill="none" stroke="#000000" stroke-width="2.52" stroke-linejoin="round" stroke-miterlimit="10" width="5.698" height="25.534"/>
	
		<line fill="none" stroke="#000000" stroke-width="2.52" stroke-linejoin="round" stroke-miterlimit="10" x1="248.235" y1="545.265" x2="242.538" y2="545.265"/>
	
		<rect x="116.017" y="478.316" fill="none" stroke="#000000" stroke-width="2.52" stroke-linejoin="round" stroke-miterlimit="10" width="7.2" height="9"/>
	
		<rect x="117.142" y="444.604" fill="none" stroke="#000000" stroke-width="2.52" stroke-linejoin="round" stroke-miterlimit="10" width="4.95" height="4.388"/>
	<g>
		<path fill="none" stroke="#000000" stroke-width="2.52" stroke-linejoin="round" stroke-miterlimit="10" d="M202.267,606.28
			v-16.124c0-5.197-4.21-9.41-9.409-9.41c-5.197,0-9.411,4.213-9.411,9.41v16.124H202.267z"/>
		
			<line fill="none" stroke="#000000" stroke-width="2.52" stroke-linejoin="round" stroke-miterlimit="10" x1="202.267" y1="592.817" x2="183.447" y2="592.817"/>
		
			<line fill="none" stroke="#000000" stroke-width="2.52" stroke-linejoin="round" stroke-miterlimit="10" x1="196.492" y1="581.912" x2="196.492" y2="606.28"/>
		
			<line fill="none" stroke="#000000" stroke-width="2.52" stroke-linejoin="round" stroke-miterlimit="10" x1="189.223" y1="581.912" x2="189.223" y2="606.28"/>
	</g>
	<g>
		
			<rect x="183.447" y="620.956" fill="none" stroke="#000000" stroke-width="2.52" stroke-linejoin="round" stroke-miterlimit="10" width="18.82" height="25.534"/>
		
			<line fill="none" stroke="#000000" stroke-width="2.52" stroke-linejoin="round" stroke-miterlimit="10" x1="196.492" y1="620.956" x2="196.492" y2="646.49"/>
		
			<line fill="none" stroke="#000000" stroke-width="2.52" stroke-linejoin="round" stroke-miterlimit="10" x1="189.223" y1="620.956" x2="189.223" y2="646.49"/>
		
			<line fill="none" stroke="#000000" stroke-width="2.52" stroke-linejoin="round" stroke-miterlimit="10" x1="202.267" y1="630.556" x2="183.447" y2="630.556"/>
	</g>
	<g>
		
			<rect x="183.447" y="667.738" fill="none" stroke="#000000" stroke-width="2.52" stroke-linejoin="round" stroke-miterlimit="10" width="18.82" height="25.534"/>
		
			<line fill="none" stroke="#000000" stroke-width="2.52" stroke-linejoin="round" stroke-miterlimit="10" x1="196.492" y1="667.738" x2="196.492" y2="693.272"/>
		
			<line fill="none" stroke="#000000" stroke-width="2.52" stroke-linejoin="round" stroke-miterlimit="10" x1="189.223" y1="667.738" x2="189.223" y2="693.272"/>
		
			<line fill="none" stroke="#000000" stroke-width="2.52" stroke-linejoin="round" stroke-miterlimit="10" x1="202.267" y1="677.338" x2="183.447" y2="677.338"/>
	</g>
	<g>
		<path fill="none" stroke="#000000" stroke-width="2.52" stroke-linejoin="round" stroke-miterlimit="10" d="M128.563,592.678
			v-26.023c0-5.197-4.212-9.41-9.411-9.41c-5.197,0-9.411,4.213-9.411,9.41v26.023H128.563z"/>
		
			<line fill="none" stroke="#000000" stroke-width="2.52" stroke-linejoin="round" stroke-miterlimit="10" x1="128.563" y1="566.654" x2="109.741" y2="566.654"/>
		
			<line fill="none" stroke="#000000" stroke-width="2.52" stroke-linejoin="round" stroke-miterlimit="10" x1="128.563" y1="574.961" x2="109.741" y2="574.961"/>
		
			<line fill="none" stroke="#000000" stroke-width="2.52" stroke-linejoin="round" stroke-miterlimit="10" x1="122.196" y1="557.757" x2="122.196" y2="592.678"/>
		
			<line fill="none" stroke="#000000" stroke-width="2.52" stroke-linejoin="round" stroke-miterlimit="10" x1="116.109" y1="557.757" x2="116.109" y2="592.678"/>
	</g>
	<g>
		
			<rect x="109.742" y="619.263" fill="none" stroke="#000000" stroke-width="2.52" stroke-linejoin="round" stroke-miterlimit="10" width="18.82" height="25.534"/>
		
			<line fill="none" stroke="#000000" stroke-width="2.52" stroke-linejoin="round" stroke-miterlimit="10" x1="122.787" y1="619.263" x2="122.787" y2="644.797"/>
		
			<line fill="none" stroke="#000000" stroke-width="2.52" stroke-linejoin="round" stroke-miterlimit="10" x1="115.519" y1="619.263" x2="115.519" y2="644.797"/>
		
			<line fill="none" stroke="#000000" stroke-width="2.52" stroke-linejoin="round" stroke-miterlimit="10" x1="128.562" y1="628.861" x2="109.742" y2="628.861"/>
	</g>
	<g>
		
			<rect x="145.699" y="567.145" fill="none" stroke="#000000" stroke-width="2.52" stroke-linejoin="round" stroke-miterlimit="10" width="5.698" height="25.533"/>
		
			<line fill="none" stroke="#000000" stroke-width="2.52" stroke-linejoin="round" stroke-miterlimit="10" x1="151.435" y1="576.744" x2="145.737" y2="576.744"/>
	</g>
	<g>
		
			<rect x="87.156" y="567.145" fill="none" stroke="#000000" stroke-width="2.52" stroke-linejoin="round" stroke-miterlimit="10" width="5.698" height="25.533"/>
		
			<line fill="none" stroke="#000000" stroke-width="2.52" stroke-linejoin="round" stroke-miterlimit="10" x1="92.892" y1="576.744" x2="87.194" y2="576.744"/>
	</g>
	<g>
		
			<rect x="87.156" y="619.263" fill="none" stroke="#000000" stroke-width="2.52" stroke-linejoin="round" stroke-miterlimit="10" width="5.698" height="25.534"/>
		
			<line fill="none" stroke="#000000" stroke-width="2.52" stroke-linejoin="round" stroke-miterlimit="10" x1="92.892" y1="628.861" x2="87.194" y2="628.861"/>
	</g>
	<g>
		
			<rect x="145.699" y="619.263" fill="none" stroke="#000000" stroke-width="2.52" stroke-linejoin="round" stroke-miterlimit="10" width="5.698" height="25.534"/>
		
			<line fill="none" stroke="#000000" stroke-width="2.52" stroke-linejoin="round" stroke-miterlimit="10" x1="151.435" y1="628.861" x2="145.737" y2="628.861"/>
	</g>
	<g>
		
			<rect x="109.742" y="667.752" fill="none" stroke="#000000" stroke-width="2.52" stroke-linejoin="round" stroke-miterlimit="10" width="18.82" height="25.533"/>
		
			<line fill="none" stroke="#000000" stroke-width="2.52" stroke-linejoin="round" stroke-miterlimit="10" x1="122.787" y1="667.752" x2="122.787" y2="693.285"/>
		
			<line fill="none" stroke="#000000" stroke-width="2.52" stroke-linejoin="round" stroke-miterlimit="10" x1="115.519" y1="667.752" x2="115.519" y2="693.285"/>
		
			<line fill="none" stroke="#000000" stroke-width="2.52" stroke-linejoin="round" stroke-miterlimit="10" x1="128.562" y1="677.352" x2="109.742" y2="677.352"/>
	</g>
	<g>
		
			<rect x="87.156" y="667.752" fill="none" stroke="#000000" stroke-width="2.52" stroke-linejoin="round" stroke-miterlimit="10" width="5.698" height="25.533"/>
		
			<line fill="none" stroke="#000000" stroke-width="2.52" stroke-linejoin="round" stroke-miterlimit="10" x1="92.892" y1="677.352" x2="87.194" y2="677.352"/>
	</g>
	<g>
		
			<rect x="145.699" y="667.752" fill="none" stroke="#000000" stroke-width="2.52" stroke-linejoin="round" stroke-miterlimit="10" width="5.698" height="25.533"/>
		
			<line fill="none" stroke="#000000" stroke-width="2.52" stroke-linejoin="round" stroke-miterlimit="10" x1="151.435" y1="677.352" x2="145.737" y2="677.352"/>
	</g>
	<g>
		<path fill="none" stroke="#000000" stroke-width="2.52" stroke-linejoin="round" stroke-miterlimit="10" d="M145.014,519.706
			c0-1.964,1.59-3.554,3.553-3.554s3.554,1.59,3.554,3.554v22.14h-7.107V519.706z"/>
		
			<line fill="none" stroke="#000000" stroke-width="2.52" stroke-linejoin="round" stroke-miterlimit="10" x1="152.121" y1="522.25" x2="145.014" y2="522.25"/>
	</g>
	<g>
		<path fill="none" stroke="#000000" stroke-width="2.52" stroke-linejoin="round" stroke-miterlimit="10" d="M85.821,516.124
			c0-1.964,1.59-3.555,3.554-3.555c1.963,0,3.553,1.591,3.553,3.555v22.139h-7.107V516.124z"/>
		
			<line fill="none" stroke="#000000" stroke-width="2.52" stroke-linejoin="round" stroke-miterlimit="10" x1="92.928" y1="518.668" x2="85.821" y2="518.668"/>
	</g>
	<g>
		
			<rect x="112.066" y="516.152" fill="none" stroke="#000000" stroke-width="2.52" stroke-linejoin="round" stroke-miterlimit="10" width="15.102" height="25.693"/>
		
			<line fill="none" stroke="#000000" stroke-width="2.52" stroke-linejoin="round" stroke-miterlimit="10" x1="119.617" y1="516.152" x2="119.617" y2="541.846"/>
		
			<line fill="none" stroke="#000000" stroke-width="2.52" stroke-linejoin="round" stroke-miterlimit="10" x1="126.238" y1="528.999" x2="111.137" y2="528.999"/>
	</g>
	<g>
		
			<rect x="744.447" y="287.945" fill="none" stroke="#000000" stroke-width="2.52" stroke-linejoin="round" stroke-miterlimit="10" width="19.15" height="25.98"/>
		
			<line fill="none" stroke="#000000" stroke-width="2.52" stroke-linejoin="round" stroke-miterlimit="10" x1="750.324" y1="287.945" x2="750.324" y2="313.925"/>
		
			<line fill="none" stroke="#000000" stroke-width="2.52" stroke-linejoin="round" stroke-miterlimit="10" x1="757.719" y1="287.945" x2="757.719" y2="313.925"/>
		
			<line fill="none" stroke="#000000" stroke-width="2.52" stroke-linejoin="round" stroke-miterlimit="10" x1="744.447" y1="297.712" x2="763.598" y2="297.712"/>
	</g>
	<g>
		
			<rect x="748.246" y="255.413" fill="none" stroke="#000000" stroke-width="2.52" stroke-linejoin="round" stroke-miterlimit="10" width="11.594" height="25.981"/>
		
			<line fill="none" stroke="#000000" stroke-width="2.52" stroke-linejoin="round" stroke-miterlimit="10" x1="754.043" y1="255.413" x2="754.043" y2="281.394"/>
		
			<line fill="none" stroke="#000000" stroke-width="2.52" stroke-linejoin="round" stroke-miterlimit="10" x1="748.205" y1="265.18" x2="759.803" y2="265.18"/>
	</g>
	
		<rect x="891.932" y="323.677" fill="none" stroke="#000000" stroke-width="2.52" stroke-linejoin="round" stroke-miterlimit="10" width="9.768" height="12.211"/>
	<g>
		<g>
			
				<rect x="736.291" y="224.939" fill="none" stroke="#000000" stroke-width="2.52" stroke-linejoin="round" stroke-miterlimit="10" width="10.244" height="17.428"/>
			
				<line fill="none" stroke="#000000" stroke-width="2.52" stroke-linejoin="round" stroke-miterlimit="10" x1="741.414" y1="224.939" x2="741.414" y2="242.367"/>
			
				<line fill="none" stroke="#000000" stroke-width="2.52" stroke-linejoin="round" stroke-miterlimit="10" x1="736.922" y1="233.653" x2="747.166" y2="233.653"/>
		</g>
		<g>
			
				<rect x="760.879" y="224.939" fill="none" stroke="#000000" stroke-width="2.52" stroke-linejoin="round" stroke-miterlimit="10" width="10.244" height="17.428"/>
			
				<line fill="none" stroke="#000000" stroke-width="2.52" stroke-linejoin="round" stroke-miterlimit="10" x1="766" y1="224.939" x2="766" y2="242.367"/>
			
				<line fill="none" stroke="#000000" stroke-width="2.52" stroke-linejoin="round" stroke-miterlimit="10" x1="761.51" y1="233.653" x2="771.754" y2="233.653"/>
		</g>
	</g>
</g>
<g id="Bldg.">
	<polyline fill="none" stroke="#000000" stroke-width="2.52" stroke-linejoin="round" stroke-miterlimit="10" points="
		322.303,589.275 322.303,717.882 215.386,717.882 215.386,589.275 	"/>
	
		<line fill="none" stroke="#000000" stroke-width="2.52" stroke-linejoin="round" stroke-miterlimit="10" x1="217.868" y1="570.043" x2="319.234" y2="570.043"/>
	<path fill="none" stroke="#000000" stroke-width="2.52" stroke-linejoin="round" stroke-miterlimit="10" d="M258.547,500.604
		c0-3.107,2.52-5.627,5.627-5.627"/>
	
		<rect x="263.73" y="491.652" fill="none" stroke="#000000" stroke-width="2.52" stroke-linejoin="round" stroke-miterlimit="10" width="9.928" height="8.951"/>
	<polygon fill="none" stroke="#000000" stroke-width="2.52" stroke-linejoin="round" stroke-miterlimit="10" points="
		262.022,491.738 268.694,485.982 275.366,491.738 	"/>
	<path fill="none" stroke="#000000" stroke-width="2.52" stroke-linejoin="round" stroke-miterlimit="10" d="M217.864,549.551
		c2.26-2.614,5.6-4.269,9.326-4.269v-13.177h6.73V522.3h7.2c0,0-1.585-8.868,6.665-12.468c8.25-3.6,8.935-8.551,8.935-8.551h11.062"
		/>
	<polyline fill="none" stroke="#000000" stroke-width="2.52" stroke-linejoin="round" stroke-miterlimit="10" points="
		319.234,557.604 272.512,557.604 264.59,557.604 217.867,557.604 	"/>
	<path fill="none" stroke="#000000" stroke-width="2.52" stroke-linejoin="round" stroke-miterlimit="10" d="M269.322,501.281
		h11.062c0,0,0.685,4.951,8.934,8.551c8.25,3.6,6.665,12.468,6.665,12.468h7.2v9.806h6.73v13.177c3.403,0,6.483,1.38,8.713,3.61"/>
	<path fill="none" stroke="#000000" stroke-width="2.52" stroke-linejoin="round" stroke-miterlimit="10" d="M279.08,500.604
		c0-3.107-2.52-5.627-5.627-5.627"/>
	
		<rect x="211.868" y="541.877" fill="none" stroke="#000000" stroke-width="2.52" stroke-linejoin="round" stroke-miterlimit="10" width="6" height="47.398"/>
	
		<rect x="319.234" y="541.877" fill="none" stroke="#000000" stroke-width="2.52" stroke-linejoin="round" stroke-miterlimit="10" width="6" height="47.398"/>
	
		<line fill="none" stroke="#000000" stroke-width="2.52" stroke-linejoin="round" stroke-miterlimit="10" x1="217.864" y1="557.604" x2="211.868" y2="557.604"/>
	
		<line fill="none" stroke="#000000" stroke-width="2.52" stroke-linejoin="round" stroke-miterlimit="10" x1="217.864" y1="570.043" x2="211.868" y2="570.043"/>
	
		<line fill="none" stroke="#000000" stroke-width="2.52" stroke-linejoin="round" stroke-miterlimit="10" x1="318.625" y1="557.604" x2="325.234" y2="557.604"/>
	
		<line fill="none" stroke="#000000" stroke-width="2.52" stroke-linejoin="round" stroke-miterlimit="10" x1="318.625" y1="570.043" x2="325.234" y2="570.043"/>
	<polyline fill="none" stroke="#000000" stroke-width="2.52" stroke-linejoin="round" stroke-miterlimit="10" points="
		324.334,573.472 367.115,573.472 367.115,717.882 322.115,717.882 322.115,589.275 	"/>
	
		<line fill="none" stroke="#000000" stroke-width="2.52" stroke-linejoin="round" stroke-miterlimit="10" x1="218.764" y1="698.251" x2="214.866" y2="698.251"/>
	<polyline fill="none" stroke="#000000" stroke-width="2.52" stroke-linejoin="round" stroke-miterlimit="10" points="
		318.625,699.6 318.625,699.6 322.303,699.6 	"/>
	<polyline fill="none" stroke="#000000" stroke-width="2.52" stroke-linejoin="round" stroke-miterlimit="10" points="
		309.012,532.105 367.115,532.105 367.115,573.472 	"/>
	<g>
		<polyline fill="none" stroke="#000000" stroke-width="2.52" stroke-linejoin="round" points="410.355,435.611 383.227,488.143 
			362.445,488.143 367.314,490.466 		"/>
	</g>
	<g>
		<polyline fill="none" stroke="#000000" stroke-width="2.52" stroke-linejoin="round" points="468.363,490.466 473.232,488.143 
			452.45,488.143 425.322,435.611 		"/>
	</g>
	<path fill="none" stroke="#000000" stroke-width="2.52" stroke-linejoin="round" stroke-miterlimit="10" d="M418.934,362.095
		v33.888l5.287,9.151c4.084,2.165,6.866,6.46,6.866,11.405c0,7.123-5.775,12.898-12.899,12.898c-7.124,0-12.899-5.775-12.899-12.898
		c0-4.453,2.256-8.379,5.688-10.697l5.703-9.859v-33.888H418.934z"/>
	<polyline fill="none" stroke="#000000" stroke-width="2.52" stroke-linejoin="round" stroke-miterlimit="10" points="
		426.52,426.867 431.567,435.611 404.847,435.611 409.885,426.883 	"/>
	<polyline fill="none" stroke="#000000" stroke-width="2.52" stroke-linejoin="round" stroke-miterlimit="10" points="
		212.796,573.472 170.015,573.472 170.015,717.882 215.015,717.882 215.015,589.275 	"/>
	<polyline fill="none" stroke="#000000" stroke-width="2.52" stroke-linejoin="round" stroke-miterlimit="10" points="
		228.119,532.105 170.015,532.105 170.015,573.472 	"/>
	<g>
		<polyline fill="none" stroke="#000000" stroke-width="2.52" stroke-linejoin="round" points="126.52,435.579 153.648,488.111 
			174.431,488.111 169.561,490.434 		"/>
	</g>
	<g>
		<polyline fill="none" stroke="#000000" stroke-width="2.52" stroke-linejoin="round" points="68.513,490.434 63.643,488.111 
			84.425,488.111 111.554,435.58 		"/>
	</g>
	<path fill="none" stroke="#000000" stroke-width="2.52" stroke-linejoin="round" stroke-miterlimit="10" d="M117.941,362.063
		v33.887l-5.287,9.151c-4.084,2.166-6.866,6.461-6.866,11.405c0,7.124,5.775,12.899,12.899,12.899s12.899-5.775,12.899-12.899
		c0-4.452-2.256-8.378-5.688-10.696l-5.703-9.86v-33.887H117.941z"/>
	<polyline fill="none" stroke="#000000" stroke-width="2.52" stroke-linejoin="round" stroke-miterlimit="10" points="
		110.356,426.835 105.308,435.579 132.029,435.579 126.99,426.852 	"/>
	<path fill="none" stroke="#000000" stroke-width="2.52" stroke-linejoin="round" stroke-miterlimit="10" d="M152.101,717.851
		h17.707V490.694h-100.8v227.156h17.444v-7.198c0-1.963,1.59-3.554,3.553-3.554c1.964,0,3.554,1.591,3.554,3.554v7.198
		c0.001,0,22.49,0,22.49,0l0-7.198c0-1.963,1.59-3.554,3.553-3.554s3.554,1.591,3.554,3.554v7.198h21.839l0-7.198
		c0-1.963,1.59-3.554,3.554-3.554c1.963,0,3.553,1.591,3.553,3.554L152.101,717.851z"/>
	<path fill="none" stroke="#000000" stroke-width="2.52" stroke-linejoin="round" stroke-miterlimit="10" d="M450.417,717.882
		h17.706V490.727h-100.8v227.155h17.444v-7.197c0-1.964,1.59-3.554,3.554-3.554s3.553,1.59,3.553,3.554v7.197
		c0.001,0,22.49,0,22.49,0l0-7.197c0-1.964,1.59-3.554,3.554-3.554s3.553,1.59,3.553,3.554v7.197h21.839c0,0,0-7.197,0-7.197
		c0-1.964,1.59-3.554,3.553-3.554s3.553,1.59,3.553,3.554V717.882z"/>
	
		<line fill="none" stroke="#000000" stroke-width="2.52" stroke-linejoin="round" stroke-miterlimit="10" x1="69.007" y1="717.851" x2="468.123" y2="717.851"/>
	<path fill="none" stroke="#000000" stroke-width="2.52" stroke-linejoin="round" stroke-miterlimit="10" d="M941.904,363.997
		H775.236v-19.842v-34.493h106.838v-60.949l6.717-15.06h37.75l17.094,15.06h3.662v3.663h-2.035c0,3.663-1.627,3.256-1.627,3.256
		v108.365H941.904z"/>
	<path fill="none" stroke="#000000" stroke-width="2.52" stroke-linejoin="round" stroke-miterlimit="10" d="M943.635,248.712"/>
	<polyline fill="none" stroke="#000000" stroke-width="2.52" stroke-linejoin="round" stroke-miterlimit="10" points="
		882.074,309.662 882.074,317.089 775.236,317.089 	"/>
	<polyline fill="none" stroke="#000000" stroke-width="2.52" stroke-linejoin="round" stroke-miterlimit="10" points="
		775.236,363.997 699.383,363.997 704.266,281.394 803.779,281.394 805.451,309.661 	"/>
	<path fill="none" stroke="#000000" stroke-width="2.52" stroke-linejoin="round" stroke-miterlimit="10" d="M704.266,281.394
		h-4.883c0,0,10.225-29.833,10.225-52.218l26.684-7.9h10.244h14.344h10.244l26.686,7.9c0,22.385,10.225,52.218,10.225,52.218h-4.885
		"/>
	<g>
		<polyline fill="none" stroke="#000000" stroke-width="2.52" stroke-linejoin="round" stroke-miterlimit="10" points="
			709.607,229.176 682.133,189.086 727.311,176.265 753.709,176.265 		"/>
		<polyline fill="none" stroke="#000000" stroke-width="2.52" stroke-linejoin="round" stroke-miterlimit="10" points="
			752.016,176.265 778.414,176.265 823.592,189.086 796.117,229.176 		"/>
	</g>
	<polyline fill="none" stroke="#000000" stroke-width="2.52" stroke-linejoin="round" stroke-miterlimit="10" points="
		682.133,189.086 682.133,176.265 726.701,163.444 726.701,176.265 	"/>
	<polyline fill="none" stroke="#000000" stroke-width="2.52" stroke-linejoin="round" stroke-miterlimit="10" points="
		777.984,176.265 777.984,163.444 726.701,163.444 	"/>
	<polyline fill="none" stroke="#000000" stroke-width="2.52" stroke-linejoin="round" stroke-miterlimit="10" points="
		777.984,163.444 823.592,176.265 823.592,189.086 	"/>
	
		<line fill="none" stroke="#000000" stroke-width="2.52" stroke-linejoin="round" stroke-miterlimit="10" x1="943.635" y1="248.712" x2="882.074" y2="248.712"/>
	
		<line fill="none" stroke="#000000" stroke-width="2.52" stroke-linejoin="round" stroke-miterlimit="10" x1="945.262" y1="252.375" x2="882.074" y2="252.375"/>
	<polyline fill="none" stroke="#000000" stroke-width="2.52" stroke-linejoin="round" stroke-miterlimit="10" points="
		682.133,183.185 726.701,169.855 777.984,169.855 823.592,183.185 	"/>
	
		<line fill="none" stroke="#000000" stroke-width="2.52" stroke-linejoin="round" stroke-miterlimit="10" x1="694.947" y1="172.579" x2="694.947" y2="185.45"/>
	
		<line fill="none" stroke="#000000" stroke-width="2.52" stroke-linejoin="round" stroke-miterlimit="10" x1="809.729" y1="173.322" x2="809.729" y2="186.121"/>
	<path fill="none" stroke="#000000" stroke-width="2.52" stroke-linejoin="round" stroke-miterlimit="10" d="M752.861,163.444"/>
	<path fill="none" stroke="#000000" stroke-width="2.52" stroke-linejoin="round" stroke-miterlimit="10" d="M713.377,167.277
		c0,0,13.324-52.47,13.324-78.519h54.439c0,26.048,13.326,78.519,13.326,78.519"/>
	<polyline fill="none" stroke="#000000" stroke-width="2.52" stroke-linejoin="round" stroke-miterlimit="10" points="
		780.715,88.759 786.414,88.759 777.865,70.851 753.709,57.827 729.551,70.851 721.004,88.759 726.701,88.759 	"/>
</g>
<g id="Misc.Bldg.">
	
		<rect x="219.134" y="691.782" fill="none" stroke="#000000" stroke-width="2.52" stroke-linejoin="round" stroke-miterlimit="10" width="99.569" height="12.938"/>
	
		<circle fill="none" stroke="#000000" stroke-width="2.52" stroke-linejoin="round" stroke-miterlimit="10" cx="238.197" cy="656.228" r="1.636"/>
	
		<circle fill="none" stroke="#000000" stroke-width="2.52" stroke-linejoin="round" stroke-miterlimit="10" cx="268.857" cy="656.228" r="1.636"/>
	
		<circle fill="none" stroke="#000000" stroke-width="2.52" stroke-linejoin="round" stroke-miterlimit="10" cx="299.641" cy="656.228" r="1.636"/>
	
		<line fill="none" stroke="#000000" stroke-width="2.52" stroke-linejoin="round" stroke-miterlimit="10" x1="215.473" y1="650.148" x2="321.341" y2="650.148"/>
	
		<rect x="228.777" y="608.008" fill="none" stroke="#000000" stroke-width="2.52" stroke-linejoin="round" stroke-miterlimit="10" width="18.82" height="5.861"/>
	
		<rect x="259.447" y="608.008" fill="none" stroke="#000000" stroke-width="2.52" stroke-linejoin="round" stroke-miterlimit="10" width="18.82" height="5.861"/>
	
		<rect x="290.241" y="608.008" fill="none" stroke="#000000" stroke-width="2.52" stroke-linejoin="round" stroke-miterlimit="10" width="18.82" height="5.861"/>
	
		<line fill="none" stroke="#000000" stroke-width="2.52" stroke-linejoin="round" stroke-miterlimit="10" x1="321.403" y1="604.303" x2="309.061" y2="604.303"/>
	
		<line fill="none" stroke="#000000" stroke-width="2.52" stroke-linejoin="round" stroke-miterlimit="10" x1="228.777" y1="604.303" x2="215.534" y2="604.303"/>
	
		<circle fill="none" stroke="#000000" stroke-width="2.52" stroke-linejoin="round" stroke-miterlimit="10" cx="344.274" cy="661.602" r="1.637"/>
	
		<circle fill="none" stroke="#000000" stroke-width="2.52" stroke-linejoin="round" stroke-miterlimit="10" cx="344.274" cy="613.611" r="1.637"/>
	
		<rect x="408.313" y="604.959" fill="none" stroke="#000000" stroke-width="2.52" stroke-linejoin="round" stroke-miterlimit="10" width="18.82" height="5.861"/>
	
		<rect x="408.313" y="656.947" fill="none" stroke="#000000" stroke-width="2.52" stroke-linejoin="round" stroke-miterlimit="10" width="18.82" height="5.862"/>
	
		<circle fill="none" stroke="#000000" stroke-width="2.52" stroke-linejoin="round" stroke-miterlimit="10" cx="418.207" cy="478.611" r="8.019"/>
	
		<rect x="408.86" y="469.264" fill="none" stroke="#000000" stroke-width="2.52" stroke-linejoin="round" stroke-miterlimit="10" width="18.694" height="18.695"/>
	<polygon fill="none" stroke="#000000" stroke-width="2.52" stroke-linejoin="round" stroke-miterlimit="10" points="
		115.66,444.604 119.617,439.551 123.574,444.604 	"/>
	<polygon fill="none" stroke="#000000" stroke-width="2.52" stroke-linejoin="round" stroke-miterlimit="10" points="
		114.188,478.035 119.617,471.332 125.046,478.035 	"/>
	<polygon fill="none" stroke="#000000" stroke-width="2.52" stroke-linejoin="round" stroke-miterlimit="10" points="
		406.468,469.264 418.208,460.6 429.946,469.264 	"/>
	
		<line fill="none" stroke="#000000" stroke-width="2.52" stroke-linejoin="round" stroke-miterlimit="10" x1="418.208" y1="460.6" x2="418.208" y2="452.436"/>
	
		<line fill="none" stroke="#000000" stroke-width="2.52" stroke-linejoin="round" stroke-miterlimit="10" x1="119.617" y1="471.332" x2="119.617" y2="465.117"/>
	<polyline fill="none" stroke="#000000" stroke-width="2.52" stroke-linejoin="round" stroke-miterlimit="10" points="
		417.651,473.821 417.651,478.611 419.603,478.611 420.906,478.611 	"/>
	<g>
		
			<rect x="341.303" y="554.83" fill="none" stroke="#000000" stroke-width="2.52" stroke-linejoin="round" stroke-miterlimit="10" width="5.833" height="7.291"/>
		<polygon fill="none" stroke="#000000" stroke-width="2.52" stroke-linejoin="round" stroke-miterlimit="10" points="
			338.722,554.629 341.226,551.743 344.247,539.957 347.214,551.709 349.771,554.629 		"/>
	</g>
	<path fill="none" stroke="#000000" stroke-width="2.52" stroke-linejoin="round" stroke-miterlimit="10" d="M240.629,557.721"/>
	<polyline fill="none" stroke="#000000" stroke-width="2.52" stroke-linejoin="round" stroke-miterlimit="10" points="
		242.538,545.265 228.607,545.265 227.19,545.265 	"/>
	
		<line fill="none" stroke="#000000" stroke-width="2.52" stroke-linejoin="round" stroke-miterlimit="10" x1="248.685" y1="545.265" x2="258.219" y2="545.265"/>
	
		<line fill="none" stroke="#000000" stroke-width="2.52" stroke-linejoin="round" stroke-miterlimit="10" x1="280.095" y1="545.265" x2="289.602" y2="545.265"/>
	<polyline fill="none" stroke="#000000" stroke-width="2.52" stroke-linejoin="round" stroke-miterlimit="10" points="
		257.619,532.088 234.587,532.088 232.484,532.088 	"/>
	
		<line fill="none" stroke="#000000" stroke-width="2.52" stroke-linejoin="round" stroke-miterlimit="10" x1="280.095" y1="532.088" x2="289.18" y2="532.088"/>
	
		<line fill="none" stroke="#000000" stroke-width="2.52" stroke-linejoin="round" stroke-miterlimit="10" x1="241.787" y1="522.282" x2="295.575" y2="522.282"/>
	
		<circle fill="none" stroke="#000000" stroke-width="2.52" stroke-linejoin="round" stroke-miterlimit="10" cx="268.857" cy="506.831" r="5.55"/>
	
		<line fill="none" stroke="#000000" stroke-width="2.52" stroke-linejoin="round" stroke-miterlimit="10" x1="294.878" y1="532.088" x2="303.182" y2="532.088"/>
	
		<line fill="none" stroke="#000000" stroke-width="2.52" stroke-linejoin="round" stroke-miterlimit="10" x1="309.912" y1="545.282" x2="295.299" y2="545.282"/>
	
		<line fill="none" stroke="#000000" stroke-width="2.52" stroke-linejoin="round" stroke-miterlimit="10" x1="321.334" y1="702.432" x2="367.115" y2="702.432"/>
	
		<line fill="none" stroke="#000000" stroke-width="2.52" stroke-linejoin="round" stroke-miterlimit="10" x1="366.873" y1="702.432" x2="467.673" y2="702.432"/>
	
		<rect x="409.514" y="499.704" fill="none" stroke="#000000" stroke-width="2.52" stroke-linejoin="round" stroke-miterlimit="10" width="16.419" height="11.777"/>
	
		<circle fill="none" stroke="#000000" stroke-width="2.52" stroke-linejoin="round" stroke-miterlimit="10" cx="192.857" cy="661.602" r="1.636"/>
	
		<circle fill="none" stroke="#000000" stroke-width="2.52" stroke-linejoin="round" stroke-miterlimit="10" cx="192.857" cy="613.611" r="1.636"/>
	<g>
		
			<rect x="189.995" y="554.83" fill="none" stroke="#000000" stroke-width="2.52" stroke-linejoin="round" stroke-miterlimit="10" width="5.833" height="7.291"/>
		<polygon fill="none" stroke="#000000" stroke-width="2.52" stroke-linejoin="round" stroke-miterlimit="10" points="
			198.408,554.629 195.905,551.743 192.884,539.957 189.917,551.709 187.36,554.629 		"/>
	</g>
	
		<line fill="none" stroke="#000000" stroke-width="2.52" stroke-linejoin="round" stroke-miterlimit="10" x1="215.796" y1="702.432" x2="170.015" y2="702.432"/>
	
		<rect x="109.742" y="604.927" fill="none" stroke="#000000" stroke-width="2.52" stroke-linejoin="round" stroke-miterlimit="10" width="18.82" height="5.862"/>
	
		<rect x="109.742" y="656.916" fill="none" stroke="#000000" stroke-width="2.52" stroke-linejoin="round" stroke-miterlimit="10" width="18.82" height="5.862"/>
	
		<line fill="none" stroke="#000000" stroke-width="2.52" stroke-linejoin="round" stroke-miterlimit="10" x1="170.002" y1="702.4" x2="69.202" y2="702.4"/>
	
		<rect x="110.943" y="499.672" fill="none" stroke="#000000" stroke-width="2.52" stroke-linejoin="round" stroke-miterlimit="10" width="16.419" height="11.777"/>
	
		<line fill="none" stroke="#000000" stroke-width="2.52" stroke-linejoin="round" stroke-miterlimit="10" x1="388.29" y1="490.727" x2="388.29" y2="494.977"/>
	
		<line fill="none" stroke="#000000" stroke-width="2.52" stroke-linejoin="round" stroke-miterlimit="10" x1="446.833" y1="490.727" x2="446.833" y2="494.977"/>
	
		<line fill="none" stroke="#000000" stroke-width="2.52" stroke-linejoin="round" stroke-miterlimit="10" x1="417.561" y1="490.727" x2="417.561" y2="494.977"/>
	
		<line fill="none" stroke="#000000" stroke-width="2.52" stroke-linejoin="round" stroke-miterlimit="10" x1="432.197" y1="490.727" x2="432.197" y2="494.977"/>
	
		<line fill="none" stroke="#000000" stroke-width="2.52" stroke-linejoin="round" stroke-miterlimit="10" x1="402.925" y1="490.727" x2="402.925" y2="494.977"/>
	
		<line fill="none" stroke="#000000" stroke-width="2.52" stroke-linejoin="round" stroke-miterlimit="10" x1="90.346" y1="491.473" x2="90.346" y2="495.723"/>
	
		<line fill="none" stroke="#000000" stroke-width="2.52" stroke-linejoin="round" stroke-miterlimit="10" x1="148.889" y1="491.473" x2="148.889" y2="495.723"/>
	
		<line fill="none" stroke="#000000" stroke-width="2.52" stroke-linejoin="round" stroke-miterlimit="10" x1="119.617" y1="491.473" x2="119.617" y2="495.723"/>
	
		<line fill="none" stroke="#000000" stroke-width="2.52" stroke-linejoin="round" stroke-miterlimit="10" x1="134.253" y1="491.473" x2="134.253" y2="495.723"/>
	
		<line fill="none" stroke="#000000" stroke-width="2.52" stroke-linejoin="round" stroke-miterlimit="10" x1="104.981" y1="491.473" x2="104.981" y2="495.723"/>
	
		<line fill="none" stroke="#000000" stroke-width="2.52" stroke-linejoin="round" stroke-miterlimit="10" x1="329.584" y1="573.125" x2="329.584" y2="577.375"/>
	
		<line fill="none" stroke="#000000" stroke-width="2.52" stroke-linejoin="round" stroke-miterlimit="10" x1="358.855" y1="573.125" x2="358.855" y2="577.375"/>
	
		<line fill="none" stroke="#000000" stroke-width="2.52" stroke-linejoin="round" stroke-miterlimit="10" x1="344.219" y1="573.125" x2="344.219" y2="577.375"/>
	
		<line fill="none" stroke="#000000" stroke-width="2.52" stroke-linejoin="round" stroke-miterlimit="10" x1="178.275" y1="573.472" x2="178.275" y2="577.723"/>
	
		<line fill="none" stroke="#000000" stroke-width="2.52" stroke-linejoin="round" stroke-miterlimit="10" x1="207.547" y1="573.472" x2="207.547" y2="577.723"/>
	
		<line fill="none" stroke="#000000" stroke-width="2.52" stroke-linejoin="round" stroke-miterlimit="10" x1="192.911" y1="573.472" x2="192.911" y2="577.723"/>
	
		<line fill="none" stroke="#000000" stroke-width="2.52" stroke-linejoin="round" stroke-miterlimit="10" x1="69.202" y1="544.855" x2="170.015" y2="544.855"/>
	
		<line fill="none" stroke="#000000" stroke-width="2.52" stroke-linejoin="round" stroke-miterlimit="10" x1="366.873" y1="544.855" x2="467.673" y2="544.855"/>
	
		<line fill="none" stroke="#000000" stroke-width="2.52" stroke-linejoin="round" stroke-miterlimit="10" x1="408.86" y1="505.593" x2="366.873" y2="505.593"/>
	
		<line fill="none" stroke="#000000" stroke-width="2.52" stroke-linejoin="round" stroke-miterlimit="10" x1="425.933" y1="505.561" x2="467.868" y2="505.561"/>
	
		<line fill="none" stroke="#000000" stroke-width="2.52" stroke-linejoin="round" stroke-miterlimit="10" x1="127.168" y1="505.561" x2="169.807" y2="505.561"/>
	
		<line fill="none" stroke="#000000" stroke-width="2.52" stroke-linejoin="round" stroke-miterlimit="10" x1="109.742" y1="505.561" x2="69.007" y2="505.561"/>
	<g>
		
			<line fill="none" stroke="#000000" stroke-width="2.52" stroke-linejoin="round" stroke-miterlimit="10" x1="817.666" y1="317.089" x2="817.666" y2="363.997"/>
		
			<line fill="none" stroke="#000000" stroke-width="2.52" stroke-linejoin="round" stroke-miterlimit="10" x1="811.561" y1="317.089" x2="811.561" y2="363.997"/>
	</g>
	<g>
		
			<line fill="none" stroke="#000000" stroke-width="2.52" stroke-linejoin="round" stroke-miterlimit="10" x1="856.738" y1="317.089" x2="856.738" y2="363.997"/>
		
			<line fill="none" stroke="#000000" stroke-width="2.52" stroke-linejoin="round" stroke-miterlimit="10" x1="850.633" y1="317.089" x2="850.633" y2="363.997"/>
	</g>
	
		<circle fill="none" stroke="#000000" stroke-width="2.52" stroke-linejoin="round" stroke-miterlimit="10" cx="913.408" cy="275.319" r="12.625"/>
	
		<rect x="891.625" y="290.43" fill="none" stroke="#000000" stroke-width="2.52" stroke-linejoin="round" stroke-miterlimit="10" width="43.564" height="7.282"/>
</g>
</svg>
