<?xml version="1.0" encoding="utf-8"?>
<!-- Generator: Adobe Illustrator 16.0.0, SVG Export Plug-In . SVG Version: 6.00 Build 0)  -->
<!DOCTYPE svg PUBLIC "-//W3C//DTD SVG 1.1//EN" "http://www.w3.org/Graphics/SVG/1.1/DTD/svg11.dtd">
<svg version="1.1" id="Layer_1" xmlns="http://www.w3.org/2000/svg" xmlns:xlink="http://www.w3.org/1999/xlink" x="0px" y="0px"
	 width="106px" height="108px" viewBox="0 0 106 108" enable-background="new 0 0 106 108" xml:space="preserve">
<g>
	<g>
		
			<line fill="#FFFFFF" stroke="#000000" stroke-width="2.52" stroke-linejoin="round" stroke-miterlimit="10" x1="7.113" y1="67.992" x2="53.72" y2="53.762"/>
		<g>
			
				<rect x="15.133" y="38.151" transform="matrix(0.2921 0.9564 -0.9564 0.2921 69.2877 18.4678)" fill="#FFFFFF" stroke="#000000" stroke-width="2.52" stroke-linejoin="round" stroke-miterlimit="10" width="14.069" height="35.78"/>
			
				<line fill="#FFFFFF" stroke="#000000" stroke-width="2.52" stroke-linejoin="round" stroke-miterlimit="10" x1="36.445" y1="59.038" x2="32.335" y2="45.583"/>
			
				<line fill="#FFFFFF" stroke="#000000" stroke-width="2.52" stroke-linejoin="round" stroke-miterlimit="10" x1="31.557" y1="60.529" x2="27.45" y2="47.072"/>
			
				<line fill="#FFFFFF" stroke="#000000" stroke-width="2.52" stroke-linejoin="round" stroke-miterlimit="10" x1="26.67" y1="62.021" x2="22.56" y2="48.565"/>
			
				<line fill="#FFFFFF" stroke="#000000" stroke-width="2.52" stroke-linejoin="round" stroke-miterlimit="10" x1="21.775" y1="63.517" x2="17.667" y2="50.061"/>
			
				<line fill="#FFFFFF" stroke="#000000" stroke-width="2.52" stroke-linejoin="round" stroke-miterlimit="10" x1="16.887" y1="65.01" x2="12.779" y2="51.552"/>
			
				<line fill="#FFFFFF" stroke="#000000" stroke-width="2.52" stroke-linejoin="round" stroke-miterlimit="10" x1="12" y1="66.501" x2="7.889" y2="53.045"/>
		</g>
	</g>
	<g>
		
			<line fill="#FFFFFF" stroke="#000000" stroke-width="2.52" stroke-linejoin="round" stroke-miterlimit="10" x1="99.842" y1="39.683" x2="53.234" y2="53.915"/>
		<g>
			
				<rect x="77.752" y="33.745" transform="matrix(-0.2922 -0.9564 0.9564 -0.2922 60.1789 147.8088)" fill="#FFFFFF" stroke="#000000" stroke-width="2.52" stroke-linejoin="round" stroke-miterlimit="10" width="14.071" height="35.78"/>
			
				<line fill="#FFFFFF" stroke="#000000" stroke-width="2.52" stroke-linejoin="round" stroke-miterlimit="10" x1="70.51" y1="48.639" x2="74.619" y2="62.094"/>
			
				<line fill="#FFFFFF" stroke="#000000" stroke-width="2.52" stroke-linejoin="round" stroke-miterlimit="10" x1="75.398" y1="47.146" x2="79.506" y2="60.604"/>
			
				<line fill="#FFFFFF" stroke="#000000" stroke-width="2.52" stroke-linejoin="round" stroke-miterlimit="10" x1="80.283" y1="45.656" x2="84.395" y2="59.111"/>
			
				<line fill="#FFFFFF" stroke="#000000" stroke-width="2.52" stroke-linejoin="round" stroke-miterlimit="10" x1="85.18" y1="44.16" x2="89.289" y2="57.617"/>
			
				<line fill="#FFFFFF" stroke="#000000" stroke-width="2.52" stroke-linejoin="round" stroke-miterlimit="10" x1="90.066" y1="42.667" x2="94.178" y2="56.125"/>
			
				<line fill="#FFFFFF" stroke="#000000" stroke-width="2.52" stroke-linejoin="round" stroke-miterlimit="10" x1="94.955" y1="41.175" x2="99.064" y2="54.632"/>
		</g>
	</g>
	<g>
		
			<line fill="#FFFFFF" stroke="#000000" stroke-width="2.52" stroke-linejoin="round" stroke-miterlimit="10" x1="39.078" y1="7.279" x2="53.309" y2="53.888"/>
		<g>
			
				<rect x="43.994" y="4.445" transform="matrix(-0.9564 0.2921 -0.2921 -0.9564 106.3564 28.7928)" fill="#FFFFFF" stroke="#000000" stroke-width="2.52" stroke-linejoin="round" stroke-miterlimit="10" width="14.07" height="35.779"/>
			
				<line fill="#FFFFFF" stroke="#000000" stroke-width="2.52" stroke-linejoin="round" stroke-miterlimit="10" x1="48.034" y1="36.612" x2="61.486" y2="32.503"/>
			
				<line fill="#FFFFFF" stroke="#000000" stroke-width="2.52" stroke-linejoin="round" stroke-miterlimit="10" x1="46.542" y1="31.723" x2="59.998" y2="27.616"/>
			
				<line fill="#FFFFFF" stroke="#000000" stroke-width="2.52" stroke-linejoin="round" stroke-miterlimit="10" x1="45.048" y1="26.837" x2="58.506" y2="22.728"/>
			
				<line fill="#FFFFFF" stroke="#000000" stroke-width="2.52" stroke-linejoin="round" stroke-miterlimit="10" x1="43.554" y1="21.942" x2="57.012" y2="17.832"/>
			
				<line fill="#FFFFFF" stroke="#000000" stroke-width="2.52" stroke-linejoin="round" stroke-miterlimit="10" x1="42.062" y1="17.054" x2="55.52" y2="12.944"/>
			
				<line fill="#FFFFFF" stroke="#000000" stroke-width="2.52" stroke-linejoin="round" stroke-miterlimit="10" x1="40.571" y1="12.167" x2="54.025" y2="8.057"/>
		</g>
	</g>
	<g>
		
			<line fill="#FFFFFF" stroke="#000000" stroke-width="2.52" stroke-linejoin="round" stroke-miterlimit="10" x1="67.57" y1="101.227" x2="53.338" y2="54.618"/>
		<g>
			
				<rect x="48.583" y="68.281" transform="matrix(0.9564 -0.2921 0.2921 0.9564 -22.7419 20.0007)" fill="#FFFFFF" stroke="#000000" stroke-width="2.52" stroke-linejoin="round" stroke-miterlimit="10" width="14.07" height="35.78"/>
			
				<line fill="#FFFFFF" stroke="#000000" stroke-width="2.52" stroke-linejoin="round" stroke-miterlimit="10" x1="58.613" y1="71.895" x2="45.16" y2="76.002"/>
			
				<line fill="#FFFFFF" stroke="#000000" stroke-width="2.52" stroke-linejoin="round" stroke-miterlimit="10" x1="60.105" y1="76.783" x2="46.65" y2="80.891"/>
			
				<line fill="#FFFFFF" stroke="#000000" stroke-width="2.52" stroke-linejoin="round" stroke-miterlimit="10" x1="61.598" y1="81.67" x2="48.143" y2="85.778"/>
			
				<line fill="#FFFFFF" stroke="#000000" stroke-width="2.52" stroke-linejoin="round" stroke-miterlimit="10" x1="63.094" y1="86.564" x2="49.636" y2="90.674"/>
			
				<line fill="#FFFFFF" stroke="#000000" stroke-width="2.52" stroke-linejoin="round" stroke-miterlimit="10" x1="64.586" y1="91.451" x2="51.128" y2="95.562"/>
			
				<line fill="#FFFFFF" stroke="#000000" stroke-width="2.52" stroke-linejoin="round" stroke-miterlimit="10" x1="66.08" y1="96.34" x2="52.621" y2="100.449"/>
		</g>
	</g>
	<path fill="#FFFFFF" stroke="#000000" stroke-width="2.52" stroke-linejoin="round" stroke-miterlimit="10" d="M58.449,50.976
		c1.607,2.841,0.609,6.449-2.232,8.057c-2.838,1.608-6.448,0.609-8.057-2.232c-1.606-2.84-0.609-6.446,2.232-8.055
		C53.233,47.138,56.844,48.135,58.449,50.976z"/>
</g>
</svg>
